<svg width="15" height="12" viewBox="0 0 15 12" fill="none" xmlns="http://www.w3.org/2000/svg">
<path d="M0.75 1C0.75 0.801088 0.829018 0.610322 0.96967 0.46967C1.11032 0.329018 1.30109 0.25 1.5 0.25H12.5C12.6989 0.25 12.8897 0.329018 13.0303 0.46967C13.171 0.610322 13.25 0.801088 13.25 1C13.25 1.19891 13.171 1.38968 13.0303 1.53033C12.8897 1.67098 12.6989 1.75 12.5 1.75H1.5C1.30109 1.75 1.11032 1.67098 0.96967 1.53033C0.829018 1.38968 0.75 1.19891 0.75 1ZM1.5 5.75H9C9.19891 5.75 9.38968 5.67098 9.53033 5.53033C9.67098 5.38968 9.75 5.19891 9.75 5C9.75 4.80109 9.67098 4.61032 9.53033 4.46967C9.38968 4.32902 9.19891 4.25 9 4.25H1.5C1.30109 4.25 1.11032 4.32902 0.96967 4.46967C0.829018 4.61032 0.75 4.80109 0.75 5C0.75 5.19891 0.829018 5.38968 0.96967 5.53033C1.11032 5.67098 1.30109 5.75 1.5 5.75V5.75ZM6 8.25H1.5C1.30109 8.25 1.11032 8.32902 0.96967 8.46967C0.829018 8.61032 0.75 8.80109 0.75 9C0.75 9.19891 0.829018 9.38968 0.96967 9.53033C1.11032 9.67098 1.30109 9.75 1.5 9.75H6C6.19891 9.75 6.38968 9.67098 6.53033 9.53033C6.67098 9.38968 6.75 9.19891 6.75 9C6.75 8.80109 6.67098 8.61032 6.53033 8.46967C6.38968 8.32902 6.19891 8.25 6 8.25V8.25ZM14.7184 4.9655C14.6901 5.05984 14.6435 5.14768 14.5812 5.22401C14.519 5.30033 14.4423 5.36365 14.3556 5.41035C14.2689 5.45705 14.1738 5.4862 14.0758 5.49616C13.9778 5.50612 13.8788 5.49668 13.7845 5.46838L12.25 5.008V9C12.2502 9.47794 12.0984 9.94356 11.8163 10.3294C11.5343 10.7153 11.1368 11.0014 10.6814 11.1463C10.2259 11.2912 9.73617 11.2874 9.28304 11.1354C8.8299 10.9834 8.4369 10.6912 8.16093 10.3009C7.88496 9.91072 7.74035 9.44279 7.74804 8.96491C7.75573 8.48703 7.91531 8.024 8.20369 7.64286C8.49206 7.26172 8.89426 6.98225 9.35205 6.84492C9.80983 6.70759 10.2994 6.71953 10.75 6.879V4C10.75 3.88308 10.7773 3.76778 10.8298 3.66331C10.8823 3.55883 10.9585 3.46808 11.0523 3.39828C11.1461 3.32849 11.2549 3.28159 11.3701 3.26134C11.4852 3.24108 11.6035 3.24803 11.7155 3.28162L14.2155 4.03162C14.3098 4.05992 14.3977 4.10653 14.474 4.16878C14.5503 4.23102 14.6137 4.3077 14.6603 4.39441C14.707 4.48113 14.7362 4.5762 14.7462 4.67419C14.7561 4.77217 14.7467 4.87116 14.7184 4.9655V4.9655ZM10.75 9C10.75 8.85166 10.706 8.70666 10.6236 8.58332C10.5412 8.45999 10.4241 8.36386 10.287 8.30709C10.15 8.25033 9.99917 8.23547 9.85368 8.26441C9.7082 8.29335 9.57456 8.36478 9.46967 8.46967C9.36478 8.57456 9.29335 8.7082 9.26441 8.85368C9.23547 8.99917 9.25033 9.14997 9.30709 9.28701C9.36386 9.42406 9.45999 9.54119 9.58332 9.6236C9.70666 9.70601 9.85166 9.75 10 9.75C10.1988 9.74978 10.3895 9.6707 10.5301 9.53009C10.6707 9.38949 10.7498 9.19885 10.75 9Z" fill="#DFDBDF"/>
</svg>
